<?xml version="1.0" encoding="utf-8" ?>
<svg baseProfile="full" height="200" version="1.1" width="200" xmlns="http://www.w3.org/2000/svg" xmlns:ev="http://www.w3.org/2001/xml-events" xmlns:xlink="http://www.w3.org/1999/xlink"><defs /><rect fill="white" height="200" stroke="black" stroke-width="3" width="200" x="0" y="0" /><polyline fill="none" points="20,0 200,20 180,200 0,180 20,0" stroke="black" stroke-width="1" /><polyline fill="none" points="40,0 200,40 160,200 0,160 40,0" stroke="black" stroke-width="1" /><polyline fill="none" points="60,0 200,60 140,200 0,140 60,0" stroke="black" stroke-width="1" /><polyline fill="none" points="80,0 200,80 120,200 0,120 80,0" stroke="black" stroke-width="1" /><polyline fill="none" points="100,0 200,100 100,200 0,100 100,0" stroke="black" stroke-width="1" /><polyline fill="none" points="120,0 200,120 80,200 0,80 120,0" stroke="black" stroke-width="1" /><polyline fill="none" points="140,0 200,140 60,200 0,60 140,0" stroke="black" stroke-width="1" /><polyline fill="none" points="160,0 200,160 40,200 0,40 160,0" stroke="black" stroke-width="1" /><polyline fill="none" points="180,0 200,180 20,200 0,20 180,0" stroke="black" stroke-width="1" /></svg>