<?xml version="1.0" encoding="utf-8" ?>
<svg baseProfile="full" height="200" version="1.1" width="200" xmlns="http://www.w3.org/2000/svg" xmlns:ev="http://www.w3.org/2001/xml-events" xmlns:xlink="http://www.w3.org/1999/xlink"><defs /><rect fill="white" height="200" width="200" x="0" y="0" /><line stroke="black" stroke-width="1" x1="100" x2="100" y1="100" y2="200" /><line stroke="black" stroke-width="1" x1="100" x2="200" y1="100" y2="100" /><line stroke="black" stroke-width="1" x1="110" x2="100" y1="100" y2="200" /><line stroke="black" stroke-width="1" x1="100" x2="200" y1="110" y2="100" /><line stroke="black" stroke-width="1" x1="120" x2="100" y1="100" y2="200" /><line stroke="black" stroke-width="1" x1="100" x2="200" y1="120" y2="100" /><line stroke="black" stroke-width="1" x1="130" x2="100" y1="100" y2="200" /><line stroke="black" stroke-width="1" x1="100" x2="200" y1="130" y2="100" /><line stroke="black" stroke-width="1" x1="140" x2="100" y1="100" y2="200" /><line stroke="black" stroke-width="1" x1="100" x2="200" y1="140" y2="100" /><line stroke="black" stroke-width="1" x1="150" x2="100" y1="100" y2="200" /><line stroke="black" stroke-width="1" x1="100" x2="200" y1="150" y2="100" /><line stroke="black" stroke-width="1" x1="160" x2="100" y1="100" y2="200" /><line stroke="black" stroke-width="1" x1="100" x2="200" y1="160" y2="100" /><line stroke="black" stroke-width="1" x1="170" x2="100" y1="100" y2="200" /><line stroke="black" stroke-width="1" x1="100" x2="200" y1="170" y2="100" /><line stroke="black" stroke-width="1" x1="180" x2="100" y1="100" y2="200" /><line stroke="black" stroke-width="1" x1="100" x2="200" y1="180" y2="100" /><line stroke="black" stroke-width="1" x1="190" x2="100" y1="100" y2="200" /><line stroke="black" stroke-width="1" x1="100" x2="200" y1="190" y2="100" /><line stroke="black" stroke-width="1" x1="200" x2="100" y1="100" y2="200" /><line stroke="black" stroke-width="1" x1="100" x2="200" y1="200" y2="100" /><circle cx="200" cy="200" fill="white" r="100" stroke="black" stroke-width="1" /><line stroke="black" stroke-width="1" x1="100" x2="100" y1="100" y2="200" /><line stroke="black" stroke-width="1" x1="100" x2="0" y1="100" y2="100" /><line stroke="black" stroke-width="1" x1="90" x2="100" y1="100" y2="200" /><line stroke="black" stroke-width="1" x1="100" x2="0" y1="110" y2="100" /><line stroke="black" stroke-width="1" x1="80" x2="100" y1="100" y2="200" /><line stroke="black" stroke-width="1" x1="100" x2="0" y1="120" y2="100" /><line stroke="black" stroke-width="1" x1="70" x2="100" y1="100" y2="200" /><line stroke="black" stroke-width="1" x1="100" x2="0" y1="130" y2="100" /><line stroke="black" stroke-width="1" x1="60" x2="100" y1="100" y2="200" /><line stroke="black" stroke-width="1" x1="100" x2="0" y1="140" y2="100" /><line stroke="black" stroke-width="1" x1="50" x2="100" y1="100" y2="200" /><line stroke="black" stroke-width="1" x1="100" x2="0" y1="150" y2="100" /><line stroke="black" stroke-width="1" x1="40" x2="100" y1="100" y2="200" /><line stroke="black" stroke-width="1" x1="100" x2="0" y1="160" y2="100" /><line stroke="black" stroke-width="1" x1="30" x2="100" y1="100" y2="200" /><line stroke="black" stroke-width="1" x1="100" x2="0" y1="170" y2="100" /><line stroke="black" stroke-width="1" x1="20" x2="100" y1="100" y2="200" /><line stroke="black" stroke-width="1" x1="100" x2="0" y1="180" y2="100" /><line stroke="black" stroke-width="1" x1="10" x2="100" y1="100" y2="200" /><line stroke="black" stroke-width="1" x1="100" x2="0" y1="190" y2="100" /><line stroke="black" stroke-width="1" x1="0" x2="100" y1="100" y2="200" /><line stroke="black" stroke-width="1" x1="100" x2="0" y1="200" y2="100" /><circle cx="0" cy="200" fill="white" r="100" stroke="black" stroke-width="1" /><line stroke="black" stroke-width="1" x1="100" x2="100" y1="100" y2="0" /><line stroke="black" stroke-width="1" x1="100" x2="200" y1="100" y2="100" /><line stroke="black" stroke-width="1" x1="110" x2="100" y1="100" y2="0" /><line stroke="black" stroke-width="1" x1="100" x2="200" y1="90" y2="100" /><line stroke="black" stroke-width="1" x1="120" x2="100" y1="100" y2="0" /><line stroke="black" stroke-width="1" x1="100" x2="200" y1="80" y2="100" /><line stroke="black" stroke-width="1" x1="130" x2="100" y1="100" y2="0" /><line stroke="black" stroke-width="1" x1="100" x2="200" y1="70" y2="100" /><line stroke="black" stroke-width="1" x1="140" x2="100" y1="100" y2="0" /><line stroke="black" stroke-width="1" x1="100" x2="200" y1="60" y2="100" /><line stroke="black" stroke-width="1" x1="150" x2="100" y1="100" y2="0" /><line stroke="black" stroke-width="1" x1="100" x2="200" y1="50" y2="100" /><line stroke="black" stroke-width="1" x1="160" x2="100" y1="100" y2="0" /><line stroke="black" stroke-width="1" x1="100" x2="200" y1="40" y2="100" /><line stroke="black" stroke-width="1" x1="170" x2="100" y1="100" y2="0" /><line stroke="black" stroke-width="1" x1="100" x2="200" y1="30" y2="100" /><line stroke="black" stroke-width="1" x1="180" x2="100" y1="100" y2="0" /><line stroke="black" stroke-width="1" x1="100" x2="200" y1="20" y2="100" /><line stroke="black" stroke-width="1" x1="190" x2="100" y1="100" y2="0" /><line stroke="black" stroke-width="1" x1="100" x2="200" y1="10" y2="100" /><line stroke="black" stroke-width="1" x1="200" x2="100" y1="100" y2="0" /><line stroke="black" stroke-width="1" x1="100" x2="200" y1="0" y2="100" /><circle cx="200" cy="0" fill="white" r="100" stroke="black" stroke-width="1" /><line stroke="black" stroke-width="1" x1="100" x2="100" y1="100" y2="0" /><line stroke="black" stroke-width="1" x1="100" x2="0" y1="100" y2="100" /><line stroke="black" stroke-width="1" x1="90" x2="100" y1="100" y2="0" /><line stroke="black" stroke-width="1" x1="100" x2="0" y1="90" y2="100" /><line stroke="black" stroke-width="1" x1="80" x2="100" y1="100" y2="0" /><line stroke="black" stroke-width="1" x1="100" x2="0" y1="80" y2="100" /><line stroke="black" stroke-width="1" x1="70" x2="100" y1="100" y2="0" /><line stroke="black" stroke-width="1" x1="100" x2="0" y1="70" y2="100" /><line stroke="black" stroke-width="1" x1="60" x2="100" y1="100" y2="0" /><line stroke="black" stroke-width="1" x1="100" x2="0" y1="60" y2="100" /><line stroke="black" stroke-width="1" x1="50" x2="100" y1="100" y2="0" /><line stroke="black" stroke-width="1" x1="100" x2="0" y1="50" y2="100" /><line stroke="black" stroke-width="1" x1="40" x2="100" y1="100" y2="0" /><line stroke="black" stroke-width="1" x1="100" x2="0" y1="40" y2="100" /><line stroke="black" stroke-width="1" x1="30" x2="100" y1="100" y2="0" /><line stroke="black" stroke-width="1" x1="100" x2="0" y1="30" y2="100" /><line stroke="black" stroke-width="1" x1="20" x2="100" y1="100" y2="0" /><line stroke="black" stroke-width="1" x1="100" x2="0" y1="20" y2="100" /><line stroke="black" stroke-width="1" x1="10" x2="100" y1="100" y2="0" /><line stroke="black" stroke-width="1" x1="100" x2="0" y1="10" y2="100" /><line stroke="black" stroke-width="1" x1="0" x2="100" y1="100" y2="0" /><line stroke="black" stroke-width="1" x1="100" x2="0" y1="0" y2="100" /><circle cx="0" cy="0" fill="white" r="100" stroke="black" stroke-width="1" /></svg>